<svg width="50" height="40" viewBox="0 0 288 288" fill="none" xmlns="http://www.w3.org/2000/svg">
<rect x="0.28125" width="287.702" height="287.702" fill="#130000"/>
<path d="M188.521 107.245C207.383 104.767 227.737 108.244 243.213 119.763C245.574 120.84 244.614 123.59 244.549 125.588C237.142 123.824 229.333 122.021 221.77 123.993C213.908 125.925 205.645 129.363 201.091 136.446C197.874 142.141 197.641 148.978 198.666 155.308C191.544 153.285 184.5 148.978 176.846 151.079C174.212 151.611 173.084 154.193 172.474 156.528C169.685 152.843 165.093 154.984 161.966 156.943C156.79 160.277 150.875 163.87 149.266 170.279C148.501 173.755 146.386 177.388 147.93 180.903C146.205 180.955 144.479 180.955 142.767 180.903C142.974 172.328 138.097 164.13 131.442 159.005C129.211 157.008 126.136 157.384 123.399 157.475C121.803 152.973 117.6 149.393 112.593 150.093C106.003 151.053 99.7888 153.7 93.4712 155.71C91.5512 144.333 84.9482 133.242 74.3885 127.962C65.2688 122.475 53.9179 122.643 43.916 125.368C45.3689 122.254 47.8337 119.789 50.7266 117.986C65.645 108.218 84.1569 105.182 101.709 106.908C102.111 122.54 116.303 135.006 131.234 136.926C132.739 131.231 132.402 125.329 131.922 119.517C133.725 122.15 135.463 124.823 137.241 127.469C138.849 125.977 140.471 124.485 142.092 123.007C144.077 124.291 145.815 126.833 148.423 126.587C150.33 125.03 151.251 121.216 154.364 122.293C155.221 126.548 152.821 132.061 155.96 135.525C165.235 136.615 174.835 132.269 180.465 124.823C184.759 119.815 186.355 113.303 188.521 107.245Z" fill="#EEE3D4"/>
</svg>
