<svg width="50" height="40" viewBox="0 0 530 408" fill="none" xmlns="http://www.w3.org/2000/svg">
<path fill-rule="evenodd" clip-rule="evenodd" d="M210 288V318H217C225.284 318 232 324.716 232 333C232 341.284 225.284 348 217 348H282C273.716 348 267 341.284 267 333C267 324.716 273.716 318 282 318H319V288H306C297.716 288 291 281.284 291 273C291 264.716 297.716 258 306 258H233C241.284 258 248 264.716 248 273C248 281.284 241.284 288 233 288H210Z" fill="#212121"/>
<path fill-rule="evenodd" clip-rule="evenodd" d="M198 363C198 354.716 204.716 348 213 348H314C322.284 348 329 354.716 329 363C329 371.284 322.284 378 314 378H213C204.716 378 198 371.284 198 363Z" fill="#212121"/>
<path fill-rule="evenodd" clip-rule="evenodd" d="M161 303C161 294.716 167.716 288 176 288H337C345.284 288 352 294.716 352 303C352 311.284 345.284 318 337 318H176C167.716 318 161 311.284 161 303Z" fill="#212121"/>
<path fill-rule="evenodd" clip-rule="evenodd" d="M197 243C197 234.716 203.716 228 212 228H313C321.284 228 328 234.716 328 243C328 251.284 321.284 258 313 258H212C203.716 258 197 251.284 197 243Z" fill="#212121"/>
<path fill-rule="evenodd" clip-rule="evenodd" d="M331 228V258H338C346.284 258 353 264.716 353 273C353 281.284 346.284 288 338 288H403C394.716 288 388 281.284 388 273C388 264.716 394.716 258 403 258H440V228H427C418.716 228 412 221.284 412 213C412 204.716 418.716 198 427 198H354C362.284 198 369 204.716 369 213C369 221.284 362.284 228 354 228H331Z" fill="#212121"/>
<path fill-rule="evenodd" clip-rule="evenodd" d="M299 303C299 294.716 305.716 288 314 288H415C423.284 288 430 294.716 430 303C430 311.284 423.284 318 415 318H314C305.716 318 299 311.284 299 303Z" fill="#212121"/>
<path fill-rule="evenodd" clip-rule="evenodd" d="M282 243C282 234.716 288.716 228 297 228H458C466.284 228 473 234.716 473 243C473 251.284 466.284 258 458 258H297C288.716 258 282 251.284 282 243Z" fill="#212121"/>
<path fill-rule="evenodd" clip-rule="evenodd" d="M318 183C318 174.716 324.716 168 333 168H434C442.284 168 449 174.716 449 183C449 191.284 442.284 198 434 198H333C324.716 198 318 191.284 318 183Z" fill="#212121"/>
<path fill-rule="evenodd" clip-rule="evenodd" d="M227 108V138H234C242.284 138 249 144.716 249 153C249 161.284 242.284 168 234 168H299C290.716 168 284 161.284 284 153C284 144.716 290.716 138 299 138H336V108H323C314.716 108 308 101.284 308 93C308 84.7158 314.716 78 323 78H250C258.284 78 265 84.7158 265 93C265 101.284 258.284 108 250 108H227Z" fill="#212121"/>
<path fill-rule="evenodd" clip-rule="evenodd" d="M215 183C215 174.716 221.716 168 230 168H331C339.284 168 346 174.716 346 183C346 191.284 339.284 198 331 198H230C221.716 198 215 191.284 215 183Z" fill="#212121"/>
<path fill-rule="evenodd" clip-rule="evenodd" d="M178 123C178 114.716 184.716 108 193 108H354C362.284 108 369 114.716 369 123C369 131.284 362.284 138 354 138H193C184.716 138 178 131.284 178 123Z" fill="#212121"/>
<path fill-rule="evenodd" clip-rule="evenodd" d="M214 63C214 54.7157 220.716 48 229 48H302C310.284 48 317 54.7157 317 63C317 71.2843 310.284 78 302 78H229C220.716 78 214 71.2843 214 63Z" fill="#212121"/>
<path fill-rule="evenodd" clip-rule="evenodd" d="M127 168V198H134C142.284 198 149 204.716 149 213C149 221.284 142.284 228 134 228H199C190.716 228 184 221.284 184 213C184 204.716 190.716 198 199 198H236V168H223C214.716 168 208 161.284 208 153C208 144.716 214.716 138 223 138H150C158.284 138 165 144.716 165 153C165 161.284 158.284 168 150 168H127Z" fill="#212121"/>
<path fill-rule="evenodd" clip-rule="evenodd" d="M115 243C115 234.716 121.716 228 130 228H231C239.284 228 246 234.716 246 243C246 251.284 239.284 258 231 258H130C121.716 258 115 251.284 115 243Z" fill="#212121"/>
<path fill-rule="evenodd" clip-rule="evenodd" d="M78 183C78 174.716 84.7157 168 93 168H254C262.284 168 269 174.716 269 183C269 191.284 262.284 198 254 198H93C84.7157 198 78 191.284 78 183Z" fill="#212121"/>
<path fill-rule="evenodd" clip-rule="evenodd" d="M114 123C114 114.716 120.716 108 129 108H230C238.284 108 245 114.716 245 123C245 131.284 238.284 138 230 138H129C120.716 138 114 131.284 114 123Z" fill="#212121"/>
<path fill-rule="evenodd" clip-rule="evenodd" d="M421 156.016C413.134 158.601 404.73 160 396 160C351.817 160 316 124.183 316 80C316 35.8171 351.817 0 396 0C404.73 0 413.134 1.39856 421 3.98376C389.061 14.4817 366 44.5479 366 80C366 115.452 389.061 145.518 421 156.016Z" fill="#FFC355"/>
<mask id="mask0_4_4" style="mask-type:luminance" maskUnits="userSpaceOnUse" x="316" y="0" width="105" height="160">
<path fill-rule="evenodd" clip-rule="evenodd" d="M421 156.016C413.134 158.601 404.73 160 396 160C351.817 160 316 124.183 316 80C316 35.8171 351.817 0 396 0C404.73 0 413.134 1.39856 421 3.98376C389.061 14.4817 366 44.5479 366 80C366 115.452 389.061 145.518 421 156.016Z" fill="white"/>
</mask>
<g mask="url(#mask0_4_4)">
<path fill-rule="evenodd" clip-rule="evenodd" d="M245 138H538V153H245V138Z" fill="#F5BA4D"/>
<path fill-rule="evenodd" clip-rule="evenodd" d="M245 108H538V123H245V108Z" fill="#F5BA4D"/>
<path fill-rule="evenodd" clip-rule="evenodd" d="M245 78H538V93H245V78Z" fill="#F5BA4D"/>
<path fill-rule="evenodd" clip-rule="evenodd" d="M245 48H538V63H245V48Z" fill="#F5BA4D"/>
<path fill-rule="evenodd" clip-rule="evenodd" d="M245 18H538V33H245V18Z" fill="#F5BA4D"/>
<path fill-rule="evenodd" clip-rule="evenodd" d="M245 -12H538V3H245V-12Z" fill="#F5BA4D"/>
</g>
<path fill-rule="evenodd" clip-rule="evenodd" d="M390 138H192C200.284 138 207 131.284 207 123C207 114.716 200.284 108 192 108H390C381.716 108 375 114.716 375 123C375 131.284 381.716 138 390 138ZM124 168C132.284 168 139 174.716 139 183C139 191.284 132.284 198 124 198H430C421.716 198 415 191.284 415 183C415 174.716 421.716 168 430 168H124ZM149 243C149 234.716 142.284 228 134 228H440C431.716 228 425 234.716 425 243C425 251.284 431.716 258 440 258H134C142.284 258 149 251.284 149 243ZM382 318H194C202.284 318 209 311.284 209 303C209 294.716 202.284 288 194 288H382C373.716 288 367 294.716 367 303C367 311.284 373.716 318 382 318Z" fill="#3D4141"/>
<path fill-rule="evenodd" clip-rule="evenodd" d="M343 78H237C245.284 78 252 71.2842 252 63C252 54.7158 245.284 48 237 48H343C334.716 48 328 54.7158 328 63C328 71.2842 334.716 78 343 78Z" fill="#3D4141"/>
<path fill-rule="evenodd" clip-rule="evenodd" d="M352 378H216C224.284 378 231 371.284 231 363C231 354.716 224.284 348 216 348H352C343.716 348 337 354.716 337 363C337 371.284 343.716 378 352 378Z" fill="#3D4141"/>
<path fill-rule="evenodd" clip-rule="evenodd" d="M63 93C63 84.7157 69.7157 78 78 78C86.2843 78 93 84.7157 93 93C93 101.284 86.2843 108 78 108C69.7157 108 63 101.284 63 93Z" fill="#3D4141"/>
<path fill-rule="evenodd" clip-rule="evenodd" d="M478 153C478 144.716 484.716 138 493 138C501.284 138 508 144.716 508 153C508 161.284 501.284 168 493 168C484.716 168 478 161.284 478 153Z" fill="#3D4141"/>
<path fill-rule="evenodd" clip-rule="evenodd" d="M20 273C20 264.716 26.7157 258 35 258H53C61.2843 258 68 264.716 68 273C68 281.284 61.2843 288 53 288H35C26.7157 288 20 281.284 20 273Z" fill="#3D4141"/>
<path fill-rule="evenodd" clip-rule="evenodd" d="M445 333C445 324.716 451.716 318 460 318H478C486.284 318 493 324.716 493 333C493 341.284 486.284 348 478 348H460C451.716 348 445 341.284 445 333Z" fill="#3D4141"/>
<path fill-rule="evenodd" clip-rule="evenodd" d="M73 333C73 324.716 79.7157 318 88 318H420C428.284 318 435 324.716 435 333C435 341.284 428.284 348 420 348H88C79.7157 348 73 341.284 73 333Z" fill="#3D4141"/>
<path fill-rule="evenodd" clip-rule="evenodd" d="M160 393C160 384.716 166.716 378 175 378H389C397.284 378 404 384.716 404 393C404 401.284 397.284 408 389 408H175C166.716 408 160 401.284 160 393Z" fill="#3D4141"/>
<path fill-rule="evenodd" clip-rule="evenodd" d="M78 273C78 264.716 84.7157 258 93 258H485C493.284 258 500 264.716 500 273C500 281.284 493.284 288 485 288H93C84.7157 288 78 281.284 78 273Z" fill="#3D4141"/>
<path fill-rule="evenodd" clip-rule="evenodd" d="M0 213C0 204.716 6.71573 198 15 198H515C523.284 198 530 204.716 530 213C530 221.284 523.284 228 515 228H15C6.71573 228 0 221.284 0 213Z" fill="#3D4141"/>
<path fill-rule="evenodd" clip-rule="evenodd" d="M103 93C103 84.7157 109.716 78 118 78H430C438.284 78 445 84.7157 445 93C445 101.284 438.284 108 430 108H118C109.716 108 103 101.284 103 93Z" fill="#3D4141"/>
<path fill-rule="evenodd" clip-rule="evenodd" d="M200 33C200 24.7157 206.716 18 215 18H373C381.284 18 388 24.7157 388 33C388 41.2843 381.284 48 373 48H215C206.716 48 200 41.2843 200 33Z" fill="#3D4141"/>
<path fill-rule="evenodd" clip-rule="evenodd" d="M42 153C42 144.716 48.7157 138 57 138H453C461.284 138 468 144.716 468 153C468 161.284 461.284 168 453 168H57C48.7157 168 42 161.284 42 153Z" fill="#3D4141"/>
<path fill-rule="evenodd" clip-rule="evenodd" d="M275 273C324.706 273 365 232.706 365 183C365 133.294 324.706 93 275 93C225.294 93 185 133.294 185 183C185 232.706 225.294 273 275 273Z" fill="#D1DDE6"/>
<mask id="mask1_4_4" style="mask-type:luminance" maskUnits="userSpaceOnUse" x="185" y="93" width="180" height="180">
<path fill-rule="evenodd" clip-rule="evenodd" d="M275 273C324.706 273 365 232.706 365 183C365 133.294 324.706 93 275 93C225.294 93 185 133.294 185 183C185 232.706 225.294 273 275 273Z" fill="white"/>
</mask>
<g mask="url(#mask1_4_4)">
<path fill-rule="evenodd" clip-rule="evenodd" d="M196 135C194.896 135 194 135.896 194 137V141H190C188.896 141 188 141.896 188 143C188 144.104 188.896 145 190 145H194V149C194 150.104 194.896 151 196 151C197.104 151 198 150.104 198 149V145H202C203.104 145 204 144.104 204 143C204 141.896 203.104 141 202 141H198V137C198 135.896 197.104 135 196 135Z" fill="#A4BDCF"/>
<path fill-rule="evenodd" clip-rule="evenodd" d="M240 114C238.896 114 238 114.896 238 116V120H234C232.896 120 232 120.896 232 122C232 123.104 232.896 124 234 124H238V128C238 129.104 238.896 130 240 130C241.104 130 242 129.104 242 128V124H246C247.104 124 248 123.104 248 122C248 120.896 247.104 120 246 120H242V116C242 114.896 241.104 114 240 114Z" fill="#A4BDCF"/>
<path fill-rule="evenodd" clip-rule="evenodd" d="M277 143C275.896 143 275 143.896 275 145V149H271C269.896 149 269 149.896 269 151C269 152.104 269.896 153 271 153H275V157C275 158.104 275.896 159 277 159C278.104 159 279 158.104 279 157V153H283C284.104 153 285 152.104 285 151C285 149.896 284.104 149 283 149H279V145C279 143.896 278.104 143 277 143Z" fill="#A4BDCF"/>
<path fill-rule="evenodd" clip-rule="evenodd" d="M287 98C285.896 98 285 98.8955 285 100V104H281C279.896 104 279 104.896 279 106C279 107.104 279.896 108 281 108H285V112C285 113.104 285.896 114 287 114C288.104 114 289 113.104 289 112V108H293C294.104 108 295 107.104 295 106C295 104.896 294.104 104 293 104H289V100C289 98.8955 288.104 98 287 98Z" fill="#A4BDCF"/>
<path fill-rule="evenodd" clip-rule="evenodd" d="M328 119C326.896 119 326 119.896 326 121V125H322C320.896 125 320 125.896 320 127C320 128.104 320.896 129 322 129H326V133C326 134.104 326.896 135 328 135C329.104 135 330 134.104 330 133V129H334C335.104 129 336 128.104 336 127C336 125.896 335.104 125 334 125H330V121C330 119.896 329.104 119 328 119Z" fill="#A4BDCF"/>
<path fill-rule="evenodd" clip-rule="evenodd" d="M358 198C356.896 198 356 198.896 356 200V204H352C350.896 204 350 204.896 350 206C350 207.104 350.896 208 352 208H356V212C356 213.104 356.896 214 358 214C359.104 214 360 213.104 360 212V208H364C365.104 208 366 207.104 366 206C366 204.896 365.104 204 364 204H360V200C360 198.896 359.104 198 358 198Z" fill="#A4BDCF"/>
<path fill-rule="evenodd" clip-rule="evenodd" d="M334 236C332.896 236 332 236.896 332 238V242H328C326.896 242 326 242.896 326 244C326 245.104 326.896 246 328 246H332V250C332 251.104 332.896 252 334 252C335.104 252 336 251.104 336 250V246H340C341.104 246 342 245.104 342 244C342 242.896 341.104 242 340 242H336V238C336 236.896 335.104 236 334 236Z" fill="#A4BDCF"/>
<path fill-rule="evenodd" clip-rule="evenodd" d="M233 212C231.896 212 231 212.896 231 214V218H227C225.896 218 225 218.896 225 220C225 221.104 225.896 222 227 222H231V226C231 227.104 231.896 228 233 228C234.104 228 235 227.104 235 226V222H239C240.104 222 241 221.104 241 220C241 218.896 240.104 218 239 218H235V214C235 212.896 234.104 212 233 212Z" fill="#A4BDCF"/>
<path fill-rule="evenodd" clip-rule="evenodd" d="M191 198C189.896 198 189 198.896 189 200V204H185C183.896 204 183 204.896 183 206C183 207.104 183.896 208 185 208H189V212C189 213.104 189.896 214 191 214C192.104 214 193 213.104 193 212V208H197C198.104 208 199 207.104 199 206C199 204.896 198.104 204 197 204H193V200C193 198.896 192.104 198 191 198Z" fill="#A4BDCF"/>
<path fill-rule="evenodd" clip-rule="evenodd" d="M305 206C303.896 206 303 206.896 303 208V212H299C297.896 212 297 212.896 297 214C297 215.104 297.896 216 299 216H303V220C303 221.104 303.896 222 305 222C306.104 222 307 221.104 307 220V216H311C312.104 216 313 215.104 313 214C313 212.896 312.104 212 311 212H307V208C307 206.896 306.104 206 305 206Z" fill="#A4BDCF"/>
</g>
<path fill-rule="evenodd" clip-rule="evenodd" d="M269 302C269 298.686 271.686 296 275 296C278.314 296 281 298.686 281 302V350C281 353.314 278.314 356 275 356C271.686 356 269 353.314 269 350V302Z" fill="#D1DDE6"/>
<path fill-rule="evenodd" clip-rule="evenodd" d="M293 286C293 282.686 295.686 280 299 280C302.314 280 305 282.686 305 286V334C305 337.314 302.314 340 299 340C295.686 340 293 337.314 293 334V286Z" fill="#D1DDE6"/>
<path fill-rule="evenodd" clip-rule="evenodd" d="M224 249C224 229.118 240.118 213 260 213H290C309.882 213 326 229.118 326 249V294C326 303.618 322.229 312.354 316.084 318.812C315.022 317.123 313.142 316 311 316C307.687 316 305 318.686 305 322V326.736C301.295 328.436 297.252 329.526 293 329.877V318C293 314.686 290.313 312 287 312C283.687 312 281 314.686 281 318V330H269V318C269 314.686 266.313 312 263 312C259.687 312 257 314.686 257 318V329.877C252.748 329.526 248.705 328.436 245 326.736V322C245 318.686 242.313 316 239 316C236.858 316 234.978 317.123 233.916 318.812C227.771 312.354 224 303.618 224 294V249Z" fill="#D1DDE6"/>
<mask id="mask2_4_4" style="mask-type:luminance" maskUnits="userSpaceOnUse" x="224" y="213" width="102" height="117">
<path fill-rule="evenodd" clip-rule="evenodd" d="M224 249C224 229.118 240.118 213 260 213H290C309.882 213 326 229.118 326 249V294C326 303.618 322.229 312.354 316.084 318.812C315.022 317.123 313.142 316 311 316C307.687 316 305 318.686 305 322V326.736C301.295 328.436 297.252 329.526 293 329.877V318C293 314.686 290.313 312 287 312C283.687 312 281 314.686 281 318V330H269V318C269 314.686 266.313 312 263 312C259.687 312 257 314.686 257 318V329.877C252.748 329.526 248.705 328.436 245 326.736V322C245 318.686 242.313 316 239 316C236.858 316 234.978 317.123 233.916 318.812C227.771 312.354 224 303.618 224 294V249Z" fill="white"/>
</mask>
<g mask="url(#mask2_4_4)">
<path fill-rule="evenodd" clip-rule="evenodd" d="M243 288C241.896 288 241 288.896 241 290V294H237C235.896 294 235 294.896 235 296C235 297.104 235.896 298 237 298H241V302C241 303.104 241.896 304 243 304C244.104 304 245 303.104 245 302V298H249C250.104 298 251 297.104 251 296C251 294.896 250.104 294 249 294H245V290C245 288.896 244.104 288 243 288Z" fill="#A4BDCF"/>
<path fill-rule="evenodd" clip-rule="evenodd" d="M227 255C225.896 255 225 255.896 225 257V261H221C219.896 261 219 261.896 219 263C219 264.104 219.896 265 221 265H225V269C225 270.104 225.896 271 227 271C228.104 271 229 270.104 229 269V265H233C234.104 265 235 264.104 235 263C235 261.896 234.104 261 233 261H229V257C229 255.896 228.104 255 227 255Z" fill="#A4BDCF"/>
<path fill-rule="evenodd" clip-rule="evenodd" d="M257 249C255.896 249 255 249.896 255 251V255H251C249.896 255 249 255.896 249 257C249 258.104 249.896 259 251 259H255V263C255 264.104 255.896 265 257 265C258.104 265 259 264.104 259 263V259H263C264.104 259 265 258.104 265 257C265 255.896 264.104 255 263 255H259V251C259 249.896 258.104 249 257 249Z" fill="#A4BDCF"/>
<path fill-rule="evenodd" clip-rule="evenodd" d="M278 280C276.896 280 276 280.896 276 282V286H272C270.896 286 270 286.896 270 288C270 289.104 270.896 290 272 290H276V294C276 295.104 276.896 296 278 296C279.104 296 280 295.104 280 294V290H284C285.104 290 286 289.104 286 288C286 286.896 285.104 286 284 286H280V282C280 280.896 279.104 280 278 280Z" fill="#A4BDCF"/>
<path fill-rule="evenodd" clip-rule="evenodd" d="M327 288C325.896 288 325 288.896 325 290V294H321C319.896 294 319 294.896 319 296C319 297.104 319.896 298 321 298H325V302C325 303.104 325.896 304 327 304C328.104 304 329 303.104 329 302V298H333C334.104 298 335 297.104 335 296C335 294.896 334.104 294 333 294H329V290C329 288.896 328.104 288 327 288Z" fill="#A4BDCF"/>
<path fill-rule="evenodd" clip-rule="evenodd" d="M304 264C302.896 264 302 264.896 302 266V270H298C296.896 270 296 270.896 296 272C296 273.104 296.896 274 298 274H302V278C302 279.104 302.896 280 304 280C305.104 280 306 279.104 306 278V274H310C311.104 274 312 273.104 312 272C312 270.896 311.104 270 310 270H306V266C306 264.896 305.104 264 304 264Z" fill="#A4BDCF"/>
</g>
<path fill-rule="evenodd" clip-rule="evenodd" d="M291 254C291 252.895 291.895 252 293 252C294.105 252 295 252.895 295 254V268C295 269.105 294.105 270 293 270C291.895 270 291 269.105 291 268V254Z" fill="#3D4141"/>
<path fill-rule="evenodd" clip-rule="evenodd" d="M283 250C283 248.895 283.895 248 285 248C286.105 248 287 248.895 287 250V264C287 265.105 286.105 266 285 266C283.895 266 283 265.105 283 264V250Z" fill="#3D4141"/>
<path fill-rule="evenodd" clip-rule="evenodd" d="M289.25 230.694C283.247 219.31 266.945 219.31 260.943 230.694L258.467 235.389C254.121 243.632 257.762 253.164 265.211 257.057C266.099 253.02 269.696 250 274 250C278.614 250 282.417 253.472 282.939 257.946C291.732 254.845 296.453 244.355 291.725 235.389L289.25 230.694Z" fill="#3D4141"/>
<path fill-rule="evenodd" clip-rule="evenodd" d="M316 220C334.225 220 349 203.435 349 183C349 162.565 334.225 146 316 146C297.775 146 283 162.565 283 183C283 203.435 297.775 220 316 220Z" fill="#A4BDCF"/>
<path fill-rule="evenodd" clip-rule="evenodd" d="M326 208C326 206.895 326.895 206 328 206C329.105 206 330 206.895 330 208V222C330 223.105 329.105 224 328 224C326.895 224 326 223.105 326 222V208Z" fill="#3D4141"/>
<path fill-rule="evenodd" clip-rule="evenodd" d="M318 204C318 202.895 318.895 202 320 202C321.105 202 322 202.895 322 204V218C322 219.105 321.105 220 320 220C318.895 220 318 219.105 318 218V204Z" fill="#3D4141"/>
<path fill-rule="evenodd" clip-rule="evenodd" d="M316 216C332.016 216 345 201.225 345 183C345 164.775 332.016 150 316 150C299.984 150 287 164.775 287 183C287 201.225 299.984 216 316 216Z" fill="#3D4141"/>
<mask id="mask3_4_4" style="mask-type:luminance" maskUnits="userSpaceOnUse" x="287" y="150" width="58" height="66">
<path fill-rule="evenodd" clip-rule="evenodd" d="M316 216C332.016 216 345 201.225 345 183C345 164.775 332.016 150 316 150C299.984 150 287 164.775 287 183C287 201.225 299.984 216 316 216Z" fill="white"/>
</mask>
<g mask="url(#mask3_4_4)">
<path fill-rule="evenodd" clip-rule="evenodd" d="M316 186C326.493 186 335 177.493 335 167C335 156.507 326.493 148 316 148C305.507 148 297 156.507 297 167C297 177.493 305.507 186 316 186Z" fill="#2B2F2F"/>
</g>
<path fill-rule="evenodd" clip-rule="evenodd" d="M234 220C252.225 220 267 203.435 267 183C267 162.565 252.225 146 234 146C215.775 146 201 162.565 201 183C201 203.435 215.775 220 234 220Z" fill="#A4BDCF"/>
<path fill-rule="evenodd" clip-rule="evenodd" d="M224 211C224 209.895 224.895 209 226 209C227.105 209 228 209.895 228 211V225C228 226.105 227.105 227 226 227C224.895 227 224 226.105 224 225V211Z" fill="#3D4141"/>
<path fill-rule="evenodd" clip-rule="evenodd" d="M232 203C232 201.895 232.895 201 234 201C235.105 201 236 201.895 236 203V217C236 218.105 235.105 219 234 219C232.895 219 232 218.105 232 217V203Z" fill="#3D4141"/>
<path fill-rule="evenodd" clip-rule="evenodd" d="M216 204C216 202.895 216.895 202 218 202C219.105 202 220 202.895 220 204V218C220 219.105 219.105 220 218 220C216.895 220 216 219.105 216 218V204Z" fill="#3D4141"/>
<path fill-rule="evenodd" clip-rule="evenodd" d="M234 216C250.016 216 263 201.225 263 183C263 164.775 250.016 150 234 150C217.984 150 205 164.775 205 183C205 201.225 217.984 216 234 216Z" fill="#3D4141"/>
<mask id="mask4_4_4" style="mask-type:luminance" maskUnits="userSpaceOnUse" x="205" y="150" width="58" height="66">
<path fill-rule="evenodd" clip-rule="evenodd" d="M234 216C250.016 216 263 201.225 263 183C263 164.775 250.016 150 234 150C217.984 150 205 164.775 205 183C205 201.225 217.984 216 234 216Z" fill="white"/>
</mask>
<g mask="url(#mask4_4_4)">
<path fill-rule="evenodd" clip-rule="evenodd" d="M234 186C244.493 186 253 177.493 253 167C253 156.507 244.493 148 234 148C223.507 148 215 156.507 215 167C215 177.493 223.507 186 234 186Z" fill="#2B2F2F"/>
</g>
<path fill-rule="evenodd" clip-rule="evenodd" d="M234 197C240.627 197 246 191.627 246 185C246 178.373 240.627 173 234 173C227.373 173 222 178.373 222 185C222 191.627 227.373 197 234 197Z" fill="#8BC34A"/>
<path fill-rule="evenodd" clip-rule="evenodd" d="M316 187C322.627 187 328 181.627 328 175C328 168.373 322.627 163 316 163C309.373 163 304 168.373 304 175C304 181.627 309.373 187 316 187Z" fill="#F655C5"/>
<path fill-rule="evenodd" clip-rule="evenodd" d="M232 192C234.761 192 237 189.761 237 187C237 184.239 234.761 182 232 182C229.239 182 227 184.239 227 187C227 189.761 229.239 192 232 192Z" fill="#3D4141"/>
<path fill-rule="evenodd" clip-rule="evenodd" d="M318 178C320.761 178 323 175.761 323 173C323 170.239 320.761 168 318 168C315.239 168 313 170.239 313 173C313 175.761 315.239 178 318 178Z" fill="#3D4141"/>
</svg>
